<svg width="35" height="40" viewBox="0 0 35 40" fill="none" xmlns="http://www.w3.org/2000/svg">
<path d="M33.1672 6.47702L17.8546 0.119435C17.6647 0.0405874 17.4611 0 17.2555 0C17.0499 0 16.8463 0.0405874 16.6564 0.119435L1.34385 6.47702C1.05865 6.59543 0.814927 6.7957 0.643467 7.05254C0.472007 7.30937 0.380497 7.61126 0.380493 7.92007V15.6486C0.380493 26.2902 6.81245 35.8627 16.665 39.8842C17.0435 40.0386 17.4675 40.0386 17.846 39.8842C27.6984 35.8628 34.1305 26.2903 34.1305 15.6486V7.92007C34.1305 7.61126 34.039 7.30937 33.8675 7.05254C33.6961 6.7957 33.4524 6.59543 33.1672 6.47702ZM31.0055 15.6486C31.0055 24.6951 25.693 33.023 17.2555 36.7403C9.04347 33.1223 3.5055 24.9402 3.5055 15.6486V8.96319L17.2555 3.25428L31.0055 8.96319V15.6486ZM15.5285 20.9153L22.2444 14.1994C22.8546 13.5893 23.8439 13.5892 24.4541 14.1994C25.0643 14.8097 25.0643 15.799 24.454 16.4091L16.6333 24.2298C16.023 24.8402 15.0337 24.8399 14.4236 24.2298L10.0569 19.8631C9.44667 19.2529 9.44667 18.2636 10.0569 17.6534C10.6671 17.0433 11.6564 17.0432 12.2666 17.6534L15.5285 20.9153Z" fill="#FF5400"/>
</svg>
