<svg xmlns="http://www.w3.org/2000/svg" viewBox="0 0 512 512.003" xmlns:v="https://vecta.io/nano"><path d="M511.938 21.594l.027-.504.035-.871-.004-.43-.004-.449-.055-.871-.039-.496-.031-.336-.039-.246-.156-1.031-.094-.441-.098-.441-.191-.762-.184-.633-.039-.137-.078-.246-.352-.973-.195-.473-.23-.523-.348-.723-.25-.488-.176-.332-.711-1.168-.109-.16-.371-.523-.617-.812-.137-.187-.09-.102-.223-.27-1.02-1.102-.168-.16-.312-.293-.809-.719-.441-.363c-.031-.023-.059-.055-.09-.078-.023-.02-.047-.031-.07-.051l-.117-.098-.855-.605-.504-.34-.391-.238-.785-.457-.512-.273-.336-.168-.828-.375-.461-.199-.176-.066-.613-.223-.727-.246-.414-.125-.531-.148-.816-.187-.437-.094-.25-.047-.586-.086-.805-.109-.367-.031-.559-.047-.82-.027c-.16 0-.32-.008-.484-.004-.105 0-.211-.008-.316-.004l-.324.02-1.008.055c-.121.008-.238.031-.359.043-.012 0-.02.004-.035.004l-.496.059-.789.125-.594.109-.098.02-.211.039-.961.25-.562.16-.074.023-.547.184-.723.258-.516.207-.406.176c-.035.012-.07.027-.105.043L24.441 209.488l-.855.41A43.1 43.1 0 0 0 0 248.367c-.023 15.93 8.551 30.391 22.461 38.008l80.293 51.938 57.645 146.035a20 20 0 0 0 15.695 12.441c.973.145 1.945.215 2.91.215 6.07 0 11.879-2.766 15.703-7.613l45.754-58.008 103.34 70.035.32.211c10.063 6.543 21.645 10.125 33.484 10.359l1.246.016c30.852 0 57.879-22.848 63.156-53.621a20 20 0 0 0-16.328-23.094c-10.887-1.863-21.227 5.445-23.094 16.332-2.316 13.504-14.199 20.574-24.184 20.375-4.379-.086-8.527-1.367-12.34-3.812l-130.379-88.359L460.016 93.301 417.348 359.84c-1.746 10.906 5.68 21.164 16.586 22.91s21.164-5.68 22.91-16.586l54.875-342.781.023-.125.016-.098c.047-.309.078-.613.113-.922.012-.109.031-.215.043-.324l.023-.32zm-317.68 346.262a19.94 19.94 0 0 0-3.281 6.172l-14.016 43.324-33.992-86.113 222.223-181.707zM41.773 251.344c-.437-.227-1.773-.914-1.77-2.914 0-1.676.938-2.426 1.5-2.758L361.262 101.07 117.625 300.293 43.48 252.332a19.98 19.98 0 0 0-1.707-.988zm0 0"/></svg>