<svg width="23" height="20" viewBox="0 0 23 20" fill="none" xmlns="http://www.w3.org/2000/svg">
<path d="M20.8087 0H1.8C0.807826 0 0 0.798261 0 1.77826V14.2609C0 15.2417 0.807826 16.0391 1.8 16.0391H8.97217L7.24957 17.8243C7.12783 17.993 7.06261 18.1939 7.06261 18.4009V19.0061C7.06261 19.2696 7.1687 19.5217 7.35739 19.7087C7.54609 19.8957 7.80174 20 8.06783 20H14.5417C14.8087 20 15.0643 19.8957 15.2522 19.7087C15.44 19.5217 15.5461 19.2696 15.547 19.0061V18.4009C15.547 18.1939 15.4817 17.993 15.36 17.8243L13.6374 16.0391H20.8096C21.8017 16.0391 22.6096 15.2409 22.6096 14.2609V1.77826C22.6087 0.798261 21.8017 0 20.8087 0ZM20.5983 14.053H11.3052H2.01043V1.98696H20.5991V14.0539L20.5983 14.053Z" fill="white"/>
</svg>
