<svg width="27" height="20" viewBox="0 0 27 20" fill="none" xmlns="http://www.w3.org/2000/svg">
<path fill-rule="evenodd" clip-rule="evenodd" d="M4.90929 16.6626C5.54234 16.8922 6.68668 16.827 7.46581 16.5174L9.57712 15.6687V18.1252L9.15712 18.2017C7.04494 18.5835 4.79277 18.4243 2.57712 17.6157C0.510162 16.9722 0.164945 15.6313 1.10755 14.8574C1.97973 14.1426 3.45973 13.6061 3.45973 13.6061L9.57712 11.1991V13.9417L5.17451 15.6878C4.39538 15.9965 4.27799 16.4348 4.90929 16.6626ZM26.4615 16.1722C25.9449 16.727 24.6832 17.1226 24.6832 17.1226L15.2832 20V17.8791L22.1997 15.7774C22.9849 15.5383 23.1058 15.1991 22.4684 15.0217C21.831 14.8443 20.678 14.8948 19.8928 15.1339L15.2832 16.5183V14.3174L15.5476 14.2409C15.5476 14.2409 16.8815 13.8383 18.7519 13.66C20.6249 13.487 22.9189 13.6843 24.7189 14.267C26.7484 14.813 26.9754 15.6191 26.4606 16.1722H26.4615ZM16.2893 11.1452V4.89478C16.2893 4.16261 16.1545 3.4887 15.4658 3.29652C14.938 3.12435 14.6128 3.61652 14.6128 4.3487V20L10.3919 18.66V0C12.1876 0.333043 14.8006 1.12 16.2067 1.59217C19.7789 2.82087 20.9902 4.3487 20.9902 7.78957C20.9902 11.1443 18.9206 12.4165 16.2902 11.1452H16.2893Z" fill="white"/>
</svg>
