<svg width="41" height="40" viewBox="0 0 41 40" fill="none" xmlns="http://www.w3.org/2000/svg">
<path d="M40.2371 38.4374C40.2371 39.0567 39.8404 40 38.6749 40C37.9474 40 37.3725 39.3635 37.356 39.347C36.0104 38.0012 33.9806 37.6612 32.3053 38.501C30.3207 39.4956 28.1479 40 25.848 40C21.2079 40.0001 16.9602 37.8919 14.2189 34.2152C13.7029 33.5234 13.8457 32.5445 14.5375 32.0286C15.2292 31.5127 16.2084 31.6555 16.724 32.3473C18.8696 35.2248 22.2018 36.875 25.8465 36.875C27.6576 36.875 29.3589 36.4821 30.9052 35.7073C32.8835 34.7158 35.1449 34.6762 37.1119 35.4932L37.1114 25.6736L37.1115 25.6585C37.1463 22.0334 35.4257 18.5763 32.5088 16.4109C31.816 15.8965 31.6712 14.9178 32.1856 14.2249C32.7 13.532 33.6788 13.3874 34.3715 13.9017C38.086 16.6592 40.2781 21.0619 40.2364 25.6801L40.2371 38.4374ZM14.6247 28.9062C12.326 28.9062 10.1536 28.402 8.16878 27.4073C7.56909 27.1067 6.90746 26.9504 6.23667 26.9509C4.30558 26.9509 2.85378 28.497 2.85378 28.497C2.56572 28.7604 2.18954 28.9064 1.79925 28.9063C1.58233 28.9063 1.3678 28.8611 1.16933 28.7736C0.602764 28.5238 0.237061 27.963 0.237061 27.3437L0.237686 14.587C0.202529 10.7147 1.69175 7.05898 4.43159 4.29273C7.17323 1.52453 10.8165 0 14.6902 0C18.5917 0 22.2404 1.51445 24.9641 4.26445C27.6962 7.02289 29.1801 10.6916 29.1426 14.5948C29.1057 18.4394 27.5769 22.0414 24.8378 24.7373C22.1062 27.4259 18.4844 28.9062 14.6389 28.9062H14.6247ZM9.56894 24.6135C11.1151 25.3884 12.8167 25.7812 14.6262 25.7812C20.8435 25.7816 25.9584 20.7509 26.0178 14.5648C26.0473 11.502 24.8846 8.62492 22.7439 6.46352C20.6115 4.31063 17.7514 3.125 14.6902 3.125C11.657 3.125 8.80222 4.3207 6.65183 6.4918C4.50144 8.66289 3.33339 11.5298 3.36253 14.5647C3.36261 14.5697 3.36214 24.3995 3.36214 24.3995C4.27651 24.0197 5.2548 23.8249 6.23823 23.8249C7.39475 23.8247 8.53532 24.0947 9.56894 24.6135ZM20.7839 12.5781C19.7053 12.5781 18.8308 13.4526 18.8308 14.5312C18.8308 15.6099 19.7053 16.4844 20.7839 16.4844C21.8626 16.4844 22.7371 15.6099 22.7371 14.5312C22.7371 13.4526 21.8627 12.5781 20.7839 12.5781ZM14.6121 12.5781C13.5334 12.5781 12.6589 13.4526 12.6589 14.5312C12.6589 15.6099 13.5334 16.4844 14.6121 16.4844C15.6907 16.4844 16.5652 15.6099 16.5652 14.5312C16.5652 13.4526 15.6908 12.5781 14.6121 12.5781ZM8.44019 12.5781C7.36151 12.5781 6.48706 13.4526 6.48706 14.5312C6.48706 15.6099 7.36151 16.4844 8.44019 16.4844C9.51886 16.4844 10.3933 15.6099 10.3933 14.5312C10.3933 13.4526 9.51894 12.5781 8.44019 12.5781Z" fill="#FF5400"/>
</svg>
