<svg xmlns="http://www.w3.org/2000/svg" xmlns:xlink="http://www.w3.org/1999/xlink" width="179.872" height="26.676" viewBox="0 0 47.591 7.058" xmlns:v="https://vecta.io/nano"><g fill="#fcaf02" fill-rule="evenodd"><path d="M23.796 6.06l-1.801.947a.44.44 0 0 1-.64-.465l.344-2.006-1.457-1.421a.44.44 0 0 1-.008-.622c.068-.071.156-.116.252-.13L22.5 2.07l.9-1.823a.44.44 0 0 1 .791 0l.9 1.823 2.014.294a.44.44 0 0 1 .373.5c-.014.095-.059.185-.129.251l-1.457 1.421.344 2.006c.041.241-.12.468-.36.511-.096.016-.194 0-.28-.045z"/><use xlink:href="#A"/><path d="M3.687 6.06l-1.801.947a.44.44 0 0 1-.64-.465l.344-2.006L.133 3.115a.44.44 0 0 1-.008-.622c.068-.071.156-.116.252-.13l2.014-.294.9-1.823a.44.44 0 0 1 .791 0l.9 1.823 2.014.294a.44.44 0 0 1 .373.5c-.014.095-.059.185-.129.251L5.784 4.536l.344 2.006c.041.241-.12.468-.36.511-.096.016-.194 0-.28-.045z"/><use xlink:href="#A" x="-30.162"/><use xlink:href="#A" x="-10.054"/></g><defs><path id="A" d="M43.904 6.06l-1.801.947a.44.44 0 0 1-.64-.465l.344-2.006-1.457-1.421a.44.44 0 0 1-.008-.622c.068-.071.156-.116.252-.13l2.014-.294.9-1.823a.44.44 0 0 1 .791 0l.9 1.823 2.014.294a.44.44 0 0 1 .373.5c-.014.095-.059.185-.129.251L46 4.535l.344 2.006c.041.241-.12.468-.36.511-.096.016-.194 0-.28-.045z"/></defs></svg>