<svg width="21" height="20" viewBox="0 0 21 20" fill="none" xmlns="http://www.w3.org/2000/svg">
<path fill-rule="evenodd" clip-rule="evenodd" d="M16.4141 8.98966C15.3226 8.96428 14.4526 9.90655 14.438 10.9657C14.4234 12.0665 15.2956 12.9495 16.2733 13.0057C17.4471 13.0733 18.3455 12.0857 18.3463 11.0257C18.3471 9.9027 17.5125 9.00966 16.4133 8.98966H16.4141ZM12.5488 9.98116V0.286157C12.5488 0.00924455 12.5527 0.00539854 12.8296 0.00539854L15.7572 0.00770614C18.1378 0.0477046 20.1285 1.79225 20.5639 4.13678C20.6325 4.51133 20.6673 4.89132 20.6677 5.27212L20.6723 14.8164C20.6716 17.004 19.3809 18.9254 17.4002 19.68C16.8494 19.89 16.2756 19.99 15.6895 19.9946L12.8711 19.9962C12.5488 19.9962 12.5488 19.9962 12.5488 19.6562V9.97962V9.98116ZM8.46513 18.367V1.61918H8.2536C7.43748 1.61918 6.62136 1.61303 5.80523 1.62226C5.5323 1.62386 5.26001 1.64908 4.99142 1.69764C3.46071 1.98301 2.26383 3.46449 2.26307 5.06828L2.26845 14.954C2.27307 15.9379 2.6669 16.7717 3.36687 17.4432C4.03915 18.0878 4.84912 18.3716 5.75754 18.3754H8.29744C8.35052 18.3754 8.40436 18.3685 8.46513 18.3647V18.367ZM10.0497 10.0019V19.7208C10.0497 19.9738 10.0235 20 9.77816 20L5.77524 19.9985C4.4099 19.9985 3.21534 19.5369 2.22307 18.5677C1.48617 17.847 1.01004 16.9624 0.803892 15.9348C0.743894 15.6363 0.696204 15.3286 0.695435 15.0248L0.707742 4.9852C0.746202 2.88836 1.79001 1.3715 3.62609 0.458458C4.30299 0.122317 5.02988 -0.00152426 5.77985 1.41371e-05H9.76431C10.0389 1.41371e-05 10.0489 0.00924455 10.0489 0.300772V10.0012L10.0497 10.0019ZM3.8007 6.239C3.7707 5.26981 4.58759 4.37138 5.6637 4.37523C6.71289 4.37907 7.55594 5.16673 7.54901 6.28131C7.54209 7.38896 6.60982 8.14816 5.64216 8.12431C4.5999 8.09893 3.79301 7.28896 3.79993 6.239H3.8007Z" fill="white"/>
</svg>
