<svg xmlns="http://www.w3.org/2000/svg" width="512" height="96" xmlns:v="https://vecta.io/nano"><path d="M0 0h96v96H0zm104 0h96v96h-96zm104 0h96v96h-96zm104 0h96v96h-96zm104 0h96v96h-96z" fill="#00b67a"/><path d="M48 64.7L62.6 61l6.1 18.8L48 64.7zm33.6-24.3H55.9L48 16.2l-7.9 24.2H14.4l20.8 15-7.9 24.2 20.8-15 12.8-9.2 20.7-15h0 0 0zM152 64.7l14.6-3.7 6.1 18.8L152 64.7zm33.6-24.3h-25.7L152 16.2l-7.9 24.2h-25.7l20.8 15-7.9 24.2 20.8-15 12.8-9.2 20.7-15h0 0 0zM256 64.7l14.6-3.7 6.1 18.8L256 64.7zm33.6-24.3h-25.7L256 16.2l-7.9 24.2h-25.7l20.8 15-7.9 24.2 20.8-15 12.8-9.2 20.7-15h0 0 0zM360 64.7l14.6-3.7 6.1 18.8L360 64.7zm33.6-24.3h-25.7L360 16.2l-7.9 24.2h-25.7l20.8 15-7.9 24.2 20.8-15 12.8-9.2 20.7-15h0 0 0zM464 64.7l14.6-3.7 6.1 18.8L464 64.7zm33.6-24.3h-25.7L464 16.2l-7.9 24.2h-25.7l20.8 15-7.9 24.2 20.8-15 12.8-9.2 20.7-15h0 0 0z" fill="#fff"/></svg>