<svg width="41" height="40" viewBox="0 0 41 40" fill="none" xmlns="http://www.w3.org/2000/svg">
<path d="M25.8884 34.837L21.1802 39.5449C20.5688 40.1523 19.5788 40.1511 18.9688 39.5449L14.2605 34.837C13.6481 34.2245 13.6481 33.2315 14.2605 32.6191C14.873 32.0066 15.8661 32.0066 16.4785 32.6191L18.5061 34.6468V20.2405C18.5061 19.3743 19.2083 18.6722 20.0744 18.6722C20.9406 18.6722 21.6428 19.3743 21.6428 20.2405V34.6468L23.6703 32.6191C23.9766 32.3129 24.378 32.1597 24.7794 32.1597C25.1807 32.1597 25.5821 32.3129 25.8884 32.6191C26.5008 33.2315 26.5008 34.2245 25.8884 34.837ZM31.0526 28.2297H26.3477C25.4815 28.2297 24.7794 27.5275 24.7794 26.6614C24.7794 25.7952 25.4815 25.093 26.3477 25.093H31.0526C34.4502 25.093 37.0122 22.3961 37.0122 18.8198C37.0122 15.7094 35.1171 13.2389 32.2963 12.6722C31.5497 12.5222 31.0188 11.8576 31.0374 11.0963C31.0392 11.0191 31.0457 10.9516 31.052 10.901C31.0106 8.3421 28.9162 6.27326 26.3477 6.27326C25.8374 6.27326 25.3176 6.37152 24.7585 6.57367C24.1301 6.80092 23.426 6.60472 23.0057 6.08483C21.4909 4.21116 19.2792 3.13663 16.9378 3.13663C14.8196 3.13663 12.8331 3.97144 11.3441 5.48738C9.86659 6.99163 9.07388 8.98715 9.11183 11.1065C9.1184 11.4736 8.99597 11.8313 8.76587 12.1174C8.53577 12.4035 8.21259 12.5998 7.85263 12.6721C5.03186 13.2389 3.13663 15.7094 3.13663 18.8198C3.13663 22.3961 5.69871 25.093 9.09623 25.093H13.8012C14.6674 25.093 15.3695 25.7952 15.3695 26.6614C15.3695 27.5275 14.6674 28.2297 13.8012 28.2297H9.09623C3.99552 28.2297 0 24.0964 0 18.8198C0 16.5953 0.680884 14.5363 1.96886 12.8653C3.0292 11.4897 4.41426 10.4895 6.02123 9.9283C6.25248 7.42597 7.32435 5.10369 9.10642 3.28938C11.1899 1.16816 13.9712 0 16.9378 0C19.8813 0 22.6708 1.19741 24.739 3.31801C25.281 3.1974 25.8191 3.13663 26.3477 3.13663C30.3145 3.13663 33.6028 6.09753 34.1189 9.92524C35.7298 10.4858 37.1178 11.4872 38.1801 12.8654C39.4681 14.5363 40.1489 16.5953 40.1489 18.8198C40.1489 24.0964 36.1534 28.2297 31.0526 28.2297Z" fill="#FF5400"/>
</svg>
