<svg width="21" height="20" viewBox="0 0 21 20" fill="none" xmlns="http://www.w3.org/2000/svg">
<path d="M4.1141 17.5273C5.87143 19.0673 8.1761 20 10.6954 20C13.1181 20.0035 15.4591 19.1245 17.2808 17.5273C18.8448 15.934 13.6841 10.27 10.6954 8.01333C7.71076 10.27 2.5461 15.934 4.1141 17.5273ZM13.4141 5.522C15.4974 7.98933 19.6508 14.116 18.4774 16.282C19.8641 14.5667 20.6954 12.384 20.6954 10.0033C20.6954 7.22 19.5581 4.70133 17.7208 2.89C17.7208 2.89 17.6981 2.872 17.6521 2.85467C17.5768 2.82875 17.4977 2.81612 17.4181 2.81733C16.9248 2.81733 15.7641 3.17866 13.4141 5.522ZM3.74077 2.85533C3.69343 2.872 3.6721 2.88933 3.66943 2.89067C1.83277 4.702 0.695435 7.22 0.695435 10.0033C0.695435 12.382 1.52743 14.564 2.91277 16.2807C1.74543 14.11 5.89543 7.988 7.97943 5.522C5.62943 3.178 4.4661 2.818 3.9741 2.818C3.86477 2.818 3.7881 2.83533 3.7401 2.85667L3.74077 2.85533ZM10.6954 2.95933C10.6954 2.95933 8.24143 1.52333 6.32477 1.45533C5.5721 1.428 5.11343 1.70133 5.05743 1.738C6.84477 0.538666 8.74476 0 10.6821 0H10.6954C12.6408 0 14.5328 0.538666 16.3341 1.73733C16.2774 1.69867 15.8214 1.42733 15.0674 1.45467C13.1508 1.52333 10.6954 2.954 10.6954 2.954V2.95933Z" fill="white"/>
</svg>
